<svg width="22" height="22" viewBox="0 0 22 22" fill="none" xmlns="http://www.w3.org/2000/svg">
<path d="M21.4489 0.750011C21.4089 0.410011 21.1389 0.150011 20.7989 0.100011C16.3889 -0.479989 11.6989 1.49001 8.04891 5.30001C3.53891 4.38001 1.00891 7.60001 0.158909 8.68001C0.0189092 8.86001 -0.0310907 9.09001 0.0189093 9.31001C0.0689093 9.53001 0.218909 9.72001 0.418909 9.82001C1.60891 10.4 2.78891 11.08 4.19891 11.92C4.19891 11.92 4.19891 11.92 4.20891 11.93C5.05891 12.45 5.96891 13.03 6.87891 13.65L5.32891 15.2C5.03891 15.49 5.03891 15.97 5.32891 16.26C5.47891 16.41 5.66891 16.48 5.85891 16.48C6.04891 16.48 6.23891 16.41 6.38891 16.26L7.93891 14.71C8.56891 15.66 9.11891 16.51 9.61891 17.33C9.63891 17.37 9.68891 17.39 9.70891 17.42C10.5289 18.8 11.1989 19.95 11.7589 21.12C11.8589 21.33 12.0389 21.47 12.2589 21.53C12.3189 21.54 12.3689 21.55 12.4289 21.55C12.5989 21.55 12.7589 21.5 12.8889 21.39C13.9689 20.54 17.1889 18.02 16.2789 13.5C20.0589 9.85001 22.0089 5.15001 21.4389 0.750011H21.4489ZM6.85891 6.65001C6.64891 6.91001 6.43891 7.18001 6.23891 7.45001C5.59891 8.29001 4.97891 9.20001 4.34891 10.26C3.51891 9.77001 2.70891 9.30001 1.93891 8.90001C3.02891 7.69001 4.60891 6.51001 6.86891 6.65001H6.85891ZM10.3889 11.2C10.0989 10.91 9.61891 10.91 9.32891 11.2L7.96891 12.56C7.16891 12.02 6.38891 11.5 5.62891 11.03C6.23891 10.01 6.81891 9.15001 7.43891 8.34001C10.7789 3.77001 15.5589 1.19001 20.0189 1.53001C20.3489 6.02001 17.7689 10.81 13.1989 14.15C12.3889 14.74 11.4889 15.34 10.5089 15.92C10.0589 15.21 9.56891 14.45 9.01891 13.63L10.3889 12.26C10.6789 11.97 10.6789 11.49 10.3889 11.2ZM12.6789 19.61C12.2789 18.84 11.8089 18.03 11.2989 17.18C12.2889 16.58 13.2389 15.98 14.0689 15.37C14.3589 15.16 14.6389 14.93 14.9189 14.71C15.0489 16.96 13.8789 18.53 12.6689 19.62L12.6789 19.61Z" fill="#4164FF"/>
<path d="M13.8489 10.3999C15.3689 10.3999 16.5989 9.1699 16.5989 7.6499C16.5989 6.1299 15.3689 4.8999 13.8489 4.8999C12.3289 4.8999 11.0989 6.1299 11.0989 7.6499C11.0989 9.1699 12.3289 10.3999 13.8489 10.3999ZM13.8489 6.3999C14.5389 6.3999 15.0989 6.9599 15.0989 7.6499C15.0989 8.3399 14.5389 8.8999 13.8489 8.8999C13.1589 8.8999 12.5989 8.3399 12.5989 7.6499C12.5989 6.9599 13.1589 6.3999 13.8489 6.3999Z" fill="#4164FF"/>
<path d="M6.9789 17.42C6.6289 17.2 6.1689 17.31 5.9489 17.66C5.8889 17.75 4.6489 19.66 1.9389 19.66C1.8989 19.66 1.8589 19.66 1.8189 19.66C1.7289 16.87 3.6889 15.56 3.7789 15.51C4.1289 15.29 4.2389 14.83 4.0089 14.47C3.7789 14.11 3.3189 14.02 2.9789 14.24C2.8489 14.32 -0.161101 16.27 0.388899 20.46C0.428899 20.8 0.698899 21.07 1.0389 21.11C1.3589 21.15 1.6689 21.17 1.9589 21.17C5.5089 21.17 7.1589 18.57 7.2289 18.46C7.4489 18.11 7.3389 17.65 6.9889 17.43L6.9789 17.42Z" fill="#4164FF"/>
</svg>
