<svg width="64" height="48" viewBox="0 0 64 48" fill="none" xmlns="http://www.w3.org/2000/svg">
<path d="M36.0563 29.3878C36.0563 24.2939 36.7774 19.9184 38.2196 16.2612C39.6619 12.4735 41.5249 9.40409 43.8085 7.05306C46.0921 4.57143 48.676 2.80816 51.5605 1.76326C54.5652 0.587751 57.5098 0 60.3943 0V6.85714C57.2694 6.85714 54.3248 8.03266 51.5605 10.3837C48.9164 12.6041 47.354 15.6735 46.8732 19.5918C47.2338 19.4612 47.6544 19.3306 48.1352 19.2C48.4958 19.0694 48.9164 18.9388 49.3972 18.8082C49.9981 18.6776 50.6592 18.6122 51.3803 18.6122C54.986 18.6122 57.9905 20.1143 60.3943 23.1184C62.798 25.9918 64 29.3878 64 33.3061C64 37.2245 62.738 40.6857 60.2141 43.6898C57.8103 46.5633 54.5653 48 50.4789 48C45.9118 48 42.3661 46.1714 39.8422 42.5143C37.3182 38.7265 36.0563 34.351 36.0563 29.3878ZM0 29.3878C0 24.2939 0.721085 19.9184 2.16334 16.2612C3.6056 12.4735 5.46842 9.40409 7.75199 7.05306C10.0356 4.57143 12.6197 2.80816 15.5042 1.76326C18.5089 0.587751 21.4535 0 24.338 0V6.85714C21.2131 6.85714 18.2685 8.03266 15.5042 10.3837C12.8601 12.6041 11.2977 15.6735 10.8169 19.5918C11.1775 19.4612 11.5982 19.3306 12.0789 19.2C12.4395 19.0694 12.8601 18.9388 13.3409 18.8082C13.9418 18.6776 14.6027 18.6122 15.3238 18.6122C18.9294 18.6122 21.9342 20.1143 24.338 23.1184C26.7417 25.9918 27.9437 29.3878 27.9437 33.3061C27.9437 37.2245 26.6818 40.6857 24.1578 43.6898C21.754 46.5633 18.5088 48 14.4224 48C9.85528 48 6.30985 46.1714 3.7859 42.5143C1.26196 38.7265 0 34.351 0 29.3878Z" fill="#4164FF"/>
</svg>
