<svg width="588" height="440" viewBox="0 0 588 440" fill="none" xmlns="http://www.w3.org/2000/svg">
<path d="M386.214 158.213C386.109 158.317 386.039 158.45 386.013 158.595C385.986 158.74 386.004 158.89 386.064 159.024L394.305 177.567C394.363 177.697 394.457 177.807 394.576 177.884C394.695 177.961 394.834 178.001 394.976 178C395.118 177.999 395.257 177.956 395.375 177.878C395.493 177.799 395.585 177.688 395.641 177.557L398.615 170.614L405.559 167.639C405.689 167.583 405.8 167.49 405.879 167.372C405.957 167.254 405.999 167.116 406 166.974C406.001 166.833 405.961 166.694 405.884 166.575C405.807 166.456 405.697 166.362 405.568 166.304L387.025 158.063C386.891 158.003 386.741 157.985 386.597 158.012C386.452 158.039 386.318 158.109 386.214 158.213Z" fill="#7EC88E"/>
<rect x="399" y="170" width="84" height="36" rx="18" fill="#7EC88E"/>
<path d="M411.729 193H408.242V183.102H411.77C414.75 183.102 416.575 184.954 416.568 188.037C416.575 191.134 414.75 193 411.729 193ZM410.293 191.236H411.646C413.533 191.236 414.518 190.259 414.518 188.037C414.518 185.836 413.533 184.865 411.66 184.865H410.293V191.236ZM421.381 193.15C419.104 193.144 417.71 191.674 417.717 189.322C417.71 187.032 419.125 185.48 421.299 185.48C423.247 185.48 424.785 186.711 424.785 189.24V189.814H419.713C419.713 190.936 420.376 191.626 421.422 191.633C422.112 191.626 422.604 191.325 422.803 190.881H424.73C424.443 192.255 423.213 193.144 421.381 193.15ZM419.713 188.543H422.871C422.864 187.641 422.242 186.991 421.34 186.998C420.41 186.991 419.754 187.688 419.713 188.543ZM432.742 185.576L430.131 193H427.861L425.264 185.576H427.396L428.955 190.908H429.037L430.596 185.576H432.742ZM436.844 193.15C434.567 193.144 433.173 191.674 433.18 189.322C433.173 187.032 434.588 185.48 436.762 185.48C438.71 185.48 440.248 186.711 440.248 189.24V189.814H435.176C435.176 190.936 435.839 191.626 436.885 191.633C437.575 191.626 438.067 191.325 438.266 190.881H440.193C439.906 192.255 438.676 193.144 436.844 193.15ZM435.176 188.543H438.334C438.327 187.641 437.705 186.991 436.803 186.998C435.873 186.991 435.217 187.688 435.176 188.543ZM443.543 183.102V193H441.52V183.102H443.543ZM448.451 193.15C446.209 193.144 444.808 191.605 444.814 189.309C444.808 187.019 446.209 185.48 448.451 185.48C450.7 185.48 452.095 187.019 452.102 189.309C452.095 191.605 450.7 193.144 448.451 193.15ZM446.865 189.309C446.865 190.607 447.405 191.571 448.465 191.578C449.497 191.571 450.044 190.607 450.037 189.309C450.044 188.003 449.497 187.025 448.465 187.025C447.405 187.025 446.865 188.003 446.865 189.309ZM453.373 195.789V185.576H455.369V186.82H455.451C455.731 186.219 456.319 185.48 457.57 185.48C459.211 185.48 460.585 186.752 460.578 189.295C460.585 191.776 459.266 193.123 457.57 193.123C456.36 193.123 455.738 192.426 455.451 191.811H455.396V195.789H453.373ZM455.355 189.281C455.349 190.621 455.923 191.503 456.928 191.51C457.96 191.503 458.521 190.594 458.514 189.281C458.521 187.989 457.974 187.094 456.928 187.094C455.916 187.094 455.349 187.948 455.355 189.281ZM465.254 193.15C462.978 193.144 461.583 191.674 461.59 189.322C461.583 187.032 462.998 185.48 465.172 185.48C467.12 185.48 468.658 186.711 468.658 189.24V189.814H463.586C463.586 190.936 464.249 191.626 465.295 191.633C465.985 191.626 466.478 191.325 466.676 190.881H468.604C468.316 192.255 467.086 193.144 465.254 193.15ZM463.586 188.543H466.744C466.737 187.641 466.115 186.991 465.213 186.998C464.283 186.991 463.627 187.688 463.586 188.543ZM469.93 193V185.576H471.885V186.861H471.967C472.233 185.952 472.924 185.467 473.758 185.467C473.963 185.467 474.223 185.494 474.4 185.535V187.34C474.209 187.278 473.819 187.23 473.539 187.23C472.623 187.23 471.946 187.866 471.953 188.775V193H469.93Z" fill="white"/>
<rect x="159" y="94" width="75" height="36" rx="18" fill="#FE9679"/>
<path d="M168.158 107.102H170.701L173.449 113.814H173.559L176.307 107.102H178.85V117H176.854V110.52H176.771L174.188 116.959H172.82L170.236 110.492H170.154V117H168.158V107.102ZM180.121 114.922C180.128 113.268 181.454 112.728 182.883 112.639C183.416 112.604 184.414 112.557 184.729 112.543V111.941C184.722 111.319 184.298 110.964 183.539 110.957C182.849 110.964 182.418 111.271 182.309 111.777H180.381C180.504 110.492 181.625 109.48 183.594 109.48C185.214 109.48 186.745 110.205 186.738 111.996V117H184.824V115.975H184.77C184.407 116.658 183.696 117.144 182.596 117.137C181.174 117.144 180.128 116.392 180.121 114.922ZM182.062 114.867C182.062 115.435 182.521 115.735 183.17 115.742C184.093 115.735 184.735 115.134 184.729 114.348V113.808C184.421 113.821 183.553 113.869 183.211 113.896C182.507 113.958 182.062 114.293 182.062 114.867ZM190.307 112.707V117H188.283V109.576H190.211V110.875H190.293C190.628 110.021 191.421 109.48 192.521 109.48C194.073 109.48 195.085 110.54 195.078 112.27V117H193.068V112.625C193.062 111.709 192.569 111.162 191.729 111.162C190.888 111.162 190.307 111.729 190.307 112.707ZM196.295 114.922C196.302 113.268 197.628 112.728 199.057 112.639C199.59 112.604 200.588 112.557 200.902 112.543V111.941C200.896 111.319 200.472 110.964 199.713 110.957C199.022 110.964 198.592 111.271 198.482 111.777H196.555C196.678 110.492 197.799 109.48 199.768 109.48C201.388 109.48 202.919 110.205 202.912 111.996V117H200.998V115.975H200.943C200.581 116.658 199.87 117.144 198.77 117.137C197.348 117.144 196.302 116.392 196.295 114.922ZM198.236 114.867C198.236 115.435 198.694 115.735 199.344 115.742C200.267 115.735 200.909 115.134 200.902 114.348V113.808C200.595 113.821 199.727 113.869 199.385 113.896C198.681 113.958 198.236 114.293 198.236 114.867ZM207.793 119.939C205.742 119.939 204.478 119.017 204.361 117.615H206.357C206.467 118.21 207.027 118.477 207.834 118.477C208.771 118.477 209.399 118.073 209.406 117.041V115.688H209.311C209.044 116.289 208.388 116.897 207.191 116.891C205.517 116.897 204.17 115.715 204.17 113.24C204.17 110.731 205.551 109.48 207.191 109.48C208.436 109.48 209.037 110.219 209.311 110.82H209.393V109.576H211.402V117.082C211.396 118.976 209.905 119.939 207.793 119.939ZM206.248 113.268C206.241 114.553 206.795 115.366 207.82 115.373C208.832 115.366 209.406 114.587 209.406 113.268C209.406 111.948 208.839 111.094 207.82 111.094C206.788 111.094 206.241 111.989 206.248 113.268ZM216.338 117.15C214.062 117.144 212.667 115.674 212.674 113.322C212.667 111.032 214.082 109.48 216.256 109.48C218.204 109.48 219.742 110.711 219.742 113.24V113.814H214.67C214.67 114.936 215.333 115.626 216.379 115.633C217.069 115.626 217.562 115.325 217.76 114.881H219.688C219.4 116.255 218.17 117.144 216.338 117.15ZM214.67 112.543H217.828C217.821 111.641 217.199 110.991 216.297 110.998C215.367 110.991 214.711 111.688 214.67 112.543ZM221.014 117V109.576H222.969V110.861H223.051C223.317 109.952 224.008 109.467 224.842 109.467C225.047 109.467 225.307 109.494 225.484 109.535V111.34C225.293 111.278 224.903 111.23 224.623 111.23C223.707 111.23 223.03 111.866 223.037 112.775V117H221.014Z" fill="white"/>
<path d="M245.786 82.2127C245.891 82.3169 245.961 82.4503 245.987 82.5952C246.014 82.74 245.996 82.8896 245.936 83.0242L237.695 101.567C237.637 101.697 237.543 101.807 237.424 101.884C237.305 101.961 237.166 102.001 237.024 102C236.882 101.999 236.743 101.956 236.625 101.878C236.507 101.799 236.415 101.688 236.359 101.557L233.385 94.6136L226.441 91.6386C226.311 91.5827 226.2 91.49 226.121 91.3721C226.043 91.2541 226.001 91.1158 226 90.9743C225.999 90.8327 226.039 90.6939 226.116 90.5749C226.193 90.4559 226.303 90.3618 226.432 90.3041L244.975 82.0627C245.109 82.003 245.259 81.9854 245.403 82.0122C245.548 82.039 245.682 82.1089 245.786 82.2127Z" fill="#FE9679"/>
<rect x="79" y="220" width="76" height="36" rx="18" fill="#DF95FF"/>
<path d="M91.6318 243H88.1455V233.102H91.6729C94.6533 233.102 96.4785 234.954 96.4717 238.037C96.4785 241.134 94.6533 243 91.6318 243ZM90.1963 241.236H91.5498C93.4365 241.236 94.4209 240.259 94.4209 238.037C94.4209 235.836 93.4365 234.865 91.5635 234.865H90.1963V241.236ZM101.284 243.15C99.0078 243.144 97.6133 241.674 97.6201 239.322C97.6133 237.032 99.0283 235.48 101.202 235.48C103.15 235.48 104.688 236.711 104.688 239.24V239.814H99.6162C99.6162 240.936 100.279 241.626 101.325 241.633C102.016 241.626 102.508 241.325 102.706 240.881H104.634C104.347 242.255 103.116 243.144 101.284 243.15ZM99.6162 238.543H102.774C102.768 237.641 102.146 236.991 101.243 236.998C100.313 236.991 99.6572 237.688 99.6162 238.543ZM110.198 237.777C110.109 237.258 109.658 236.923 108.981 236.916C108.325 236.923 107.826 237.23 107.833 237.682C107.826 238.017 108.086 238.276 108.79 238.42L110.116 238.693C111.559 238.994 112.256 239.637 112.263 240.703C112.256 242.166 110.943 243.144 108.968 243.15C106.965 243.144 105.789 242.248 105.618 240.799H107.655C107.751 241.38 108.223 241.681 108.968 241.688C109.706 241.681 110.198 241.387 110.198 240.908C110.198 240.525 109.884 240.286 109.187 240.143L107.956 239.896C106.541 239.616 105.816 238.892 105.823 237.791C105.816 236.369 107.04 235.48 108.954 235.48C110.827 235.48 111.989 236.369 112.099 237.777H110.198ZM113.507 243V235.576H115.53V243H113.507ZM113.411 233.58C113.411 233.006 113.91 232.548 114.519 232.541C115.12 232.548 115.619 233.006 115.612 233.58C115.619 234.141 115.12 234.605 114.519 234.605C113.91 234.605 113.411 234.141 113.411 233.58ZM120.438 245.939C118.388 245.939 117.123 245.017 117.007 243.615H119.003C119.112 244.21 119.673 244.477 120.479 244.477C121.416 244.477 122.045 244.073 122.052 243.041V241.688H121.956C121.689 242.289 121.033 242.897 119.837 242.891C118.162 242.897 116.815 241.715 116.815 239.24C116.815 236.731 118.196 235.48 119.837 235.48C121.081 235.48 121.683 236.219 121.956 236.82H122.038V235.576H124.048V243.082C124.041 244.976 122.551 245.939 120.438 245.939ZM118.894 239.268C118.887 240.553 119.44 241.366 120.466 241.373C121.478 241.366 122.052 240.587 122.052 239.268C122.052 237.948 121.484 237.094 120.466 237.094C119.434 237.094 118.887 237.989 118.894 239.268ZM127.644 238.707V243H125.62V235.576H127.548V236.875H127.63C127.965 236.021 128.758 235.48 129.858 235.48C131.41 235.48 132.422 236.54 132.415 238.27V243H130.405V238.625C130.398 237.709 129.906 237.162 129.065 237.162C128.225 237.162 127.644 237.729 127.644 238.707ZM137.351 243.15C135.074 243.144 133.68 241.674 133.687 239.322C133.68 237.032 135.095 235.48 137.269 235.48C139.217 235.48 140.755 236.711 140.755 239.24V239.814H135.683C135.683 240.936 136.346 241.626 137.392 241.633C138.082 241.626 138.574 241.325 138.772 240.881H140.7C140.413 242.255 139.183 243.144 137.351 243.15ZM135.683 238.543H138.841C138.834 237.641 138.212 236.991 137.31 236.998C136.38 236.991 135.724 237.688 135.683 238.543ZM142.026 243V235.576H143.981V236.861H144.063C144.33 235.952 145.021 235.467 145.854 235.467C146.06 235.467 146.319 235.494 146.497 235.535V237.34C146.306 237.278 145.916 237.23 145.636 237.23C144.72 237.23 144.043 237.866 144.05 238.775V243H142.026Z" fill="white"/>
<path d="M166.786 208.213C166.891 208.317 166.961 208.45 166.987 208.595C167.014 208.74 166.996 208.89 166.936 209.024L158.695 227.567C158.637 227.697 158.543 227.807 158.424 227.884C158.305 227.961 158.166 228.001 158.024 228C157.882 227.999 157.743 227.956 157.625 227.878C157.507 227.799 157.415 227.688 157.359 227.557L154.385 220.614L147.441 217.639C147.311 217.583 147.2 217.49 147.121 217.372C147.043 217.254 147.001 217.116 147 216.974C146.999 216.833 147.039 216.694 147.116 216.575C147.193 216.456 147.303 216.362 147.432 216.304L165.975 208.063C166.109 208.003 166.259 207.985 166.403 208.012C166.548 208.039 166.682 208.109 166.786 208.213Z" fill="#DF95FF"/>
<path d="M381.214 306.213C381.109 306.317 381.039 306.45 381.013 306.595C380.986 306.74 381.004 306.89 381.064 307.024L389.305 325.567C389.363 325.697 389.457 325.807 389.576 325.884C389.695 325.961 389.834 326.001 389.976 326C390.118 325.999 390.257 325.956 390.375 325.878C390.493 325.799 390.585 325.688 390.641 325.557L393.615 318.614L400.559 315.639C400.689 315.583 400.8 315.49 400.879 315.372C400.957 315.254 400.999 315.116 401 314.974C401.001 314.833 400.961 314.694 400.884 314.575C400.807 314.456 400.697 314.362 400.568 314.304L382.025 306.063C381.891 306.003 381.741 305.985 381.597 306.012C381.452 306.039 381.318 306.109 381.214 306.213Z" fill="#8097FF"/>
<rect x="394" y="318" width="47" height="36" rx="18" fill="#8097FF"/>
<path d="M409.01 331.102H411.074V337.527C411.074 339.694 409.427 341.144 406.973 341.137C404.512 341.144 402.885 339.694 402.885 337.527V331.102H404.936V337.363C404.942 338.505 405.749 339.325 406.973 339.332C408.21 339.325 409.017 338.505 409.01 337.363V331.102ZM416.939 335.777C416.851 335.258 416.399 334.923 415.723 334.916C415.066 334.923 414.567 335.23 414.574 335.682C414.567 336.017 414.827 336.276 415.531 336.42L416.857 336.693C418.3 336.994 418.997 337.637 419.004 338.703C418.997 340.166 417.685 341.144 415.709 341.15C413.706 341.144 412.53 340.248 412.359 338.799H414.396C414.492 339.38 414.964 339.681 415.709 339.688C416.447 339.681 416.939 339.387 416.939 338.908C416.939 338.525 416.625 338.286 415.928 338.143L414.697 337.896C413.282 337.616 412.558 336.892 412.564 335.791C412.558 334.369 413.781 333.48 415.695 333.48C417.568 333.48 418.73 334.369 418.84 335.777H416.939ZM423.611 341.15C421.335 341.144 419.94 339.674 419.947 337.322C419.94 335.032 421.355 333.48 423.529 333.48C425.478 333.48 427.016 334.711 427.016 337.24V337.814H421.943C421.943 338.936 422.606 339.626 423.652 339.633C424.343 339.626 424.835 339.325 425.033 338.881H426.961C426.674 340.255 425.443 341.144 423.611 341.15ZM421.943 336.543H425.102C425.095 335.641 424.473 334.991 423.57 334.998C422.641 334.991 421.984 335.688 421.943 336.543ZM428.287 341V333.576H430.242V334.861H430.324C430.591 333.952 431.281 333.467 432.115 333.467C432.32 333.467 432.58 333.494 432.758 333.535V335.34C432.566 335.278 432.177 335.23 431.896 335.23C430.98 335.23 430.304 335.866 430.311 336.775V341H428.287Z" fill="white"/>
</svg>
