<svg width="452" height="260" viewBox="0 0 452 260" fill="none" xmlns="http://www.w3.org/2000/svg">
<path d="M0 17.92C0 11.6474 0 8.51112 1.22073 6.11531C2.29451 4.00789 4.00789 2.29451 6.11531 1.22073C8.51112 0 11.6474 0 17.92 0H433.72C439.993 0 443.129 0 445.525 1.22073C447.632 2.29451 449.345 4.00789 450.419 6.11531C451.64 8.51112 451.64 11.6474 451.64 17.92V290.64C451.64 296.913 451.64 300.049 450.419 302.445C449.345 304.552 447.632 306.266 445.525 307.339C443.129 308.56 439.993 308.56 433.72 308.56H17.92C11.6474 308.56 8.51112 308.56 6.11531 307.339C4.00789 306.266 2.29451 304.552 1.22073 302.445C0 300.049 0 296.913 0 290.64V17.92Z" fill="#121515"/>
</svg>
