<svg width="182" height="178" viewBox="0 0 182 178" fill="none" xmlns="http://www.w3.org/2000/svg">
<path d="M92.6621 177.928C112.579 179.227 129.001 162.799 127.716 142.907C126.56 125.18 110.211 112.217 92.431 112.217H61.9561V142.676C61.9561 160.446 74.9259 176.787 92.6621 177.942V177.928Z" fill="#4164FF"/>
<path d="M89.3361 0.0721314C69.419 -1.22707 52.9972 15.2006 54.2826 35.0927C55.438 52.8195 71.7876 65.7827 89.5671 65.7827H120.042V35.3237C120.042 17.5536 107.072 1.21255 89.3361 0.0577038V0.0721314Z" fill="#FE6237"/>
<path d="M181.928 85.4027C183.228 65.5 166.789 49.0901 146.882 50.3746C129.142 51.5292 116.17 67.867 116.17 85.6336V116.087H146.651C164.434 116.087 180.787 103.126 181.942 85.4027H181.928Z" fill="#7CC3FF"/>
<path d="M0.0721834 92.5953C-1.22795 112.498 15.2116 128.908 35.1181 127.623C52.8577 126.469 65.8302 110.131 65.8302 92.3644V61.9114H35.3492C17.5662 61.9114 1.2134 74.8719 0.0577234 92.5953H0.0721834Z" fill="#FFB62E"/>
</svg>
