<svg width="16" height="16" viewBox="0 0 16 16" fill="none" xmlns="http://www.w3.org/2000/svg">
<path d="M15.2433 7.71267C11.48 6.246 10.4227 5.188 8.95533 1.42467C8.856 1.16867 8.60867 1 8.334 1C8.05933 1 7.81267 1.16867 7.71267 1.42467C6.246 5.188 5.188 6.24533 1.42467 7.71267C1.16867 7.812 1 8.05933 1 8.334C1 8.60867 1.16867 8.85533 1.42467 8.95533C5.188 10.422 6.24533 11.48 7.71267 15.2433C7.812 15.4993 8.05933 15.668 8.334 15.668C8.60867 15.668 8.85533 15.4993 8.95533 15.2433C10.422 11.48 11.48 10.4227 15.2433 8.95533C15.4993 8.856 15.668 8.60867 15.668 8.334C15.668 8.05933 15.4993 7.81267 15.2433 7.71267Z" fill="currentColor"/>
</svg>
