<svg width="24" height="24" viewBox="0 0 24 24" fill="none" xmlns="http://www.w3.org/2000/svg">
<path d="M9.20204 5.48047C9.7693 3.82045 12.0619 3.76708 12.7382 5.32324V5.32422L12.7987 5.48438L13.6044 7.8418C13.794 8.3964 14.1005 8.90387 14.5028 9.33008C14.9053 9.75636 15.3945 10.0913 15.9374 10.3125L15.9403 10.3135L16.1571 10.3945L16.16 10.3955L18.5194 11.2012C20.1798 11.7686 20.2328 14.0625 18.6767 14.7383L18.5194 14.7979L16.16 15.6045C15.6051 15.7939 15.0973 16.1005 14.6708 16.5029C14.2443 16.9054 13.9087 17.3945 13.6874 17.9375L13.6864 17.9395L13.6054 18.1562L13.6044 18.1592L12.7987 20.5195C12.2312 22.1804 9.93573 22.233 9.26161 20.6758H9.26259L9.20204 20.5195L8.3954 18.1602C8.20596 17.6052 7.90039 17.0964 7.49794 16.6699C7.0955 16.2434 6.60543 15.9088 6.06239 15.6875L6.06044 15.6865L5.84364 15.6055L5.84169 15.6045L3.48134 14.7988C1.81965 14.2313 1.7674 11.9371 3.32509 11.2627L3.48524 11.2002L3.48427 11.1992L5.84169 10.3955C6.39632 10.2059 6.90375 9.89942 7.32997 9.49707C7.75625 9.09464 8.09122 8.60541 8.31239 8.0625L8.31337 8.06055L8.39442 7.84375L8.3954 7.84082L9.20204 5.48047ZM10.9999 5.99414C10.9572 5.99419 10.919 6.02112 10.9052 6.06152L10.0995 8.42188C9.82258 9.23338 9.37185 9.97506 8.77919 10.5947C8.18713 11.2137 7.46719 11.696 6.66982 12.0088L6.41982 12.0996L4.06142 12.9053C4.02105 12.9192 3.99403 12.9573 3.99403 13C3.99403 13.0427 4.02105 13.0808 4.06142 13.0947L6.42177 13.9004C7.23332 14.1773 7.97493 14.628 8.59462 15.2207C9.21339 15.8125 9.69589 16.5321 10.0087 17.3291V17.3301L10.0995 17.5771V17.5781L10.9052 19.9385C10.919 19.9789 10.9572 20.0058 10.9999 20.0059C11.0426 20.0059 11.0808 19.9789 11.0946 19.9385L11.9003 17.5781C12.1772 16.7666 12.6279 16.025 13.2206 15.4053C13.8132 14.7857 14.5336 14.302 15.3319 13.9893L15.579 13.9004L17.9384 13.0947C17.9788 13.0809 18.0058 13.0428 18.0058 13C18.0057 12.9572 17.9788 12.9191 17.9384 12.9053L15.578 12.0996C14.7665 11.8227 14.0248 11.3719 13.4052 10.7793C12.863 10.2607 12.4256 9.64384 12.1151 8.96289L11.9901 8.66797L11.9003 8.41992L11.0946 6.06152C11.0808 6.02112 11.0426 5.99413 10.9999 5.99414ZM18.9999 2.09961C19.1683 2.09961 19.3336 2.14723 19.4765 2.23633C19.6179 2.32459 19.7324 2.45031 19.8065 2.59961L19.8534 2.71484L20.2011 3.73535C20.2111 3.76465 20.2343 3.78784 20.2636 3.79785L21.2909 4.14746C21.4595 4.20474 21.6074 4.31085 21.7157 4.45215C21.8241 4.59362 21.8879 4.76455 21.8993 4.94238C21.9107 5.12003 21.8694 5.29716 21.7802 5.45117C21.6913 5.60426 21.5589 5.7282 21.4003 5.80664L21.2841 5.85352L20.2645 6.20117C20.2353 6.2112 20.212 6.23437 20.202 6.26367L19.8524 7.29102C19.795 7.45962 19.6882 7.6076 19.5468 7.71582C19.4054 7.82387 19.2351 7.88713 19.0575 7.89844C18.8797 7.90971 18.7018 7.86882 18.5477 7.7793C18.4322 7.71214 18.3338 7.61996 18.2587 7.51074L18.1923 7.39648L18.1464 7.28516L17.7987 6.26465C17.7887 6.23533 17.7655 6.21214 17.7362 6.20215L16.7089 5.85254C16.5403 5.79523 16.3924 5.68915 16.2841 5.54785C16.1757 5.40638 16.1119 5.23545 16.1005 5.05762C16.0891 4.87984 16.1312 4.70292 16.2206 4.54883C16.2877 4.43322 16.379 4.33398 16.4882 4.25879L16.6034 4.19141L16.7147 4.14648L16.7138 4.14551L17.7352 3.79883C17.7646 3.78883 17.7877 3.76565 17.7977 3.73633L18.1474 2.70898C18.2081 2.53125 18.3237 2.37681 18.4765 2.26758C18.6292 2.15852 18.8122 2.09951 18.9999 2.09961Z" fill="black" stroke="white" stroke-width="0.2" stroke-linejoin="round"/>
</svg>
