<svg width="16" height="16" viewBox="0 0 16 16" fill="none" xmlns="http://www.w3.org/2000/svg">
<g clip-path="url(#clip0_4545_97613)">
<path d="M13.4351 1.39844H2.5647C1.9214 1.39844 1.3999 1.91994 1.3999 2.56324V13.4336C1.3999 14.0769 1.9214 14.5984 2.5647 14.5984H13.4351C14.0784 14.5984 14.5999 14.0769 14.5999 13.4336V2.56324C14.5999 1.91994 14.0784 1.39844 13.4351 1.39844Z" fill="#97D18B"/>
<path d="M9.2316 3.82977H6.7684C6.5004 3.82977 6.2832 3.61258 6.2832 3.34458C6.2832 3.07658 6.5004 2.85938 6.7684 2.85938H9.2316C9.4996 2.85938 9.7168 3.07658 9.7168 3.34458C9.7168 3.61258 9.4996 3.82977 9.2316 3.82977Z" fill="#49734A"/>
<path d="M14.5999 7.28125H1.3999V8.05765H14.5999V7.28125Z" fill="#678E65"/>
<path d="M9.2316 10.486H6.7684C6.5004 10.486 6.2832 10.2688 6.2832 10.0008C6.2832 9.73283 6.5004 9.51562 6.7684 9.51562H9.2316C9.4996 9.51562 9.7168 9.73283 9.7168 10.0008C9.7168 10.2688 9.4996 10.486 9.2316 10.486Z" fill="#49734A"/>
</g>
<defs>
<clipPath id="clip0_4545_97613">
<rect width="16" height="16" fill="white"/>
</clipPath>
</defs>
</svg>
