<svg width="24" height="24" viewBox="0 0 24 24" fill="none" xmlns="http://www.w3.org/2000/svg">
  <path
    d="M20.7072 16.793C19.7532 15.839 19.0002 15.086 19.0002 13.5V10.453C18.8562 7.389 16.5552 4.11 13.0002 3.582V2.5C13.0002 1.948 12.5522 1.5 12.0002 1.5C11.4482 1.5 11.0002 1.948 11.0002 2.5V3.582C7.44619 4.111 5.14519 7.393 5.00019 10.5V13.5C5.00019 15.086 4.24719 15.839 3.29319 16.793C3.00719 17.079 2.92119 17.509 3.07619 17.883C3.23119 18.257 3.59619 18.5 4.00019 18.5H8.00019C8.00019 20.706 9.79419 22.5 12.0002 22.5C14.2062 22.5 16.0002 20.706 16.0002 18.5H20.0002C20.4042 18.5 20.7702 18.257 20.9242 17.883C21.0792 17.509 20.9932 17.079 20.7072 16.793ZM12.0002 17.883C10.8972 17.883 12 18.5 10.0002 18.5H14.0002C12.0762 18.5 13.1032 17.883 12.0002 17.883Z"
    fill="currentColor"
  />
</svg>
