<svg width="24" height="24" viewBox="0 0 24 24" fill="none" xmlns="http://www.w3.org/2000/svg">
<path d="M5.833 19.709H18.167C18.9847 19.709 19.7688 19.3842 20.347 18.806C20.9252 18.2278 21.25 17.4436 21.25 16.626V9.43197C21.2501 9.02702 21.1705 8.62601 21.0156 8.25185C20.8607 7.87769 20.6337 7.5377 20.3474 7.25131C20.0611 6.96492 19.7212 6.73774 19.347 6.58274C18.9729 6.42775 18.5719 6.34797 18.167 6.34797H16.748C16.34 6.34797 15.948 6.18497 15.658 5.89597L14.508 4.74497C14.365 4.60167 14.195 4.48799 14.008 4.41043C13.821 4.33287 13.6205 4.29295 13.418 4.29297H10.582C10.172 4.29297 9.782 4.45597 9.492 4.74497L8.342 5.89597C8.052 6.18597 7.66 6.34797 7.252 6.34797H5.833C5.42805 6.34797 5.02707 6.42775 4.65296 6.58274C4.27884 6.73774 3.93893 6.96492 3.65264 7.25131C3.36634 7.5377 3.13927 7.87769 2.98439 8.25185C2.82952 8.62601 2.74987 9.02702 2.75 9.43197V16.626C2.75 17.4436 3.07482 18.2278 3.65299 18.806C4.23116 19.3842 5.01534 19.709 5.833 19.709Z" stroke="currentColor" stroke-width="1.5" stroke-linecap="round" stroke-linejoin="round"/>
<path d="M12 16.6263C13.0903 16.6263 14.136 16.1932 14.9069 15.4222C15.6779 14.6513 16.111 13.6056 16.111 12.5153C16.111 11.425 15.6779 10.3793 14.9069 9.60838C14.136 8.83742 13.0903 8.4043 12 8.4043C10.9097 8.4043 9.86405 8.83742 9.09308 9.60838C8.32212 10.3793 7.889 11.425 7.889 12.5153C7.889 13.6056 8.32212 14.6513 9.09308 15.4222C9.86405 16.1932 10.9097 16.6263 12 16.6263Z" stroke="currentColor" stroke-width="1.5" stroke-linecap="round" stroke-linejoin="round"/>
</svg>
