<svg width="24" height="24" viewBox="0 0 24 24" fill="none" xmlns="http://www.w3.org/2000/svg">
<path fill-rule="evenodd" clip-rule="evenodd" d="M6.2 8.00019C6.2 7.00608 7.00589 6.2002 8 6.2002H19.2C20.1941 6.2002 21 7.00608 21 8.0002V19.2002C21 20.1943 20.1941 21.0002 19.2 21.0002H8C7.00589 21.0002 6.2 20.1943 6.2 19.2002V8.00019ZM8 7.8002C7.88954 7.8002 7.8 7.88974 7.8 8.00019V19.2002C7.8 19.3107 7.88954 19.4002 8 19.4002H19.2C19.3105 19.4002 19.4 19.3106 19.4 19.2002V8.0002C19.4 7.88974 19.3105 7.8002 19.2 7.8002H8Z" fill="currentColor"/>
<path fill-rule="evenodd" clip-rule="evenodd" d="M3.00078 4.8C3.00078 3.80589 3.80667 3 4.80078 3H18.2C18.6418 3 19 3.35817 19 3.8C19 4.24183 18.6418 4.6 18.2 4.6H4.80078C4.69032 4.6 4.60078 4.68954 4.60078 4.8V18.2002C4.60078 18.642 4.24261 19.0002 3.80078 19.0002C3.35895 19.0002 3.00078 18.642 3.00078 18.2002V4.8Z" fill="currentColor"/>
</svg>
