<svg width="24" height="24" viewBox="0 0 24 24" fill="none" xmlns="http://www.w3.org/2000/svg">
<path d="M2 12C2 17.5228 6.47715 22 12 22C17.5228 22 22 17.5228 22 12C22 6.47715 17.5228 2 12 2C6.47715 2 2 6.47715 2 12Z" fill="#DE3412"/>
<path fill-rule="evenodd" clip-rule="evenodd" d="M14.4354 8.43344C14.7478 8.12121 15.2539 8.12108 15.5662 8.43344C15.8786 8.74579 15.8785 9.25186 15.5662 9.56429L13.1307 11.9998L15.5643 14.4334C15.8767 14.7459 15.8767 15.2519 15.5643 15.5643C15.2519 15.8767 14.7459 15.8767 14.4334 15.5643L11.9998 13.1307L9.56625 15.5643C9.25383 15.8767 8.74781 15.8767 8.43539 15.5643C8.12297 15.2519 8.12297 14.7459 8.43539 14.4334L10.869 11.9998L8.43344 9.56429C8.12121 9.25186 8.12108 8.74579 8.43344 8.43344C8.74579 8.12108 9.25186 8.12121 9.56429 8.43344L11.9998 10.869L14.4354 8.43344Z" fill="white"/>
</svg>
