<svg width="20" height="20" viewBox="0 0 20 20" fill="none" xmlns="http://www.w3.org/2000/svg">
<rect x="18.3333" y="1.66602" width="16.6667" height="16.6667" rx="8.33333" transform="rotate(90 18.3333 1.66602)" fill="#CDD1D5"/>
<path d="M13.2788 5.77729C13.5392 5.51694 13.9619 5.51694 14.2222 5.77729C14.4823 6.03755 14.4822 6.45935 14.2222 6.71968L10.9419 9.99897L14.2203 13.2773C14.4806 13.5376 14.4806 13.9593 14.2203 14.2197C13.9599 14.48 13.5382 14.48 13.2779 14.2197L9.99955 10.9414L6.7222 14.2197C6.46185 14.48 6.03919 14.48 5.77884 14.2197C5.51887 13.9594 5.51877 13.5375 5.77884 13.2773L9.05716 9.99897L5.77787 6.71968C5.51768 6.45931 5.51757 6.03759 5.77787 5.77729C6.03816 5.517 6.45989 5.51711 6.72025 5.77729L9.99955 9.05659L13.2788 5.77729Z" fill="#33363D"/>
</svg>
