<svg width="16" height="16" viewBox="0 0 16 16" fill="none" xmlns="http://www.w3.org/2000/svg">
<path d="M10.6231 4.62301C10.8314 4.41473 11.1697 4.41473 11.378 4.62301C11.586 4.8312 11.5859 5.16866 11.378 5.37691L8.75394 7.99996L11.377 10.623C11.585 10.8312 11.5849 11.1687 11.377 11.3769C11.1687 11.5852 10.8304 11.5852 10.6221 11.3769L8.00004 8.75484L5.37797 11.3769C5.16969 11.5852 4.83136 11.5852 4.62308 11.3769C4.41519 11.1687 4.41511 10.8312 4.62308 10.623L7.24515 7.99996L4.62211 5.37691C4.41417 5.16866 4.41409 4.8312 4.62211 4.62301C4.83039 4.41473 5.16871 4.41473 5.37699 4.62301L8.00004 7.24605L10.6231 4.62301Z" fill="currentColor"/>
</svg>
