<svg width="24" height="24" viewBox="0 0 24 24" fill="none" xmlns="http://www.w3.org/2000/svg">
<path fill-rule="evenodd" clip-rule="evenodd" d="M16.4343 2.43353C16.7467 2.12111 17.2533 2.12111 17.5657 2.43353L21.5657 6.43353C21.7157 6.58356 21.8 6.78705 21.8 6.99922C21.8 7.21139 21.7157 7.41488 21.5657 7.5649L12.5657 16.5649C12.4157 16.7149 12.2122 16.7992 12 16.7992H8C7.55817 16.7992 7.2 16.441 7.2 15.9992V11.9992C7.2 11.787 7.28429 11.5836 7.43431 11.4335L16.4343 2.43353ZM17 4.13059L15.1314 5.99922L18 8.86785L19.8686 6.99922L17 4.13059ZM16.8686 9.99922L14 7.13059L8.8 12.3306V15.1992H11.6686L16.8686 9.99922ZM4.8 4.59922C4.68954 4.59922 4.6 4.68876 4.6 4.79922V19.1992C4.6 19.3097 4.68954 19.3992 4.8 19.3992H19.2C19.3105 19.3992 19.4 19.3097 19.4 19.1992V12.1992C19.4 11.7574 19.7582 11.3992 20.2 11.3992C20.6418 11.3992 21 11.7574 21 12.1992V19.1992C21 20.1933 20.1941 20.9992 19.2 20.9992H4.8C3.80589 20.9992 3 20.1933 3 19.1992V4.79922C3 3.80511 3.80589 2.99922 4.8 2.99922H11.7992C12.241 2.99922 12.5992 3.35739 12.5992 3.79922C12.5992 4.24105 12.241 4.59922 11.7992 4.59922H4.8Z" fill="currentColor"/>
</svg>
