<svg width="24" height="24" viewBox="0 0 24 24" fill="none" xmlns="http://www.w3.org/2000/svg">
<path d="M11.9996 4C12.7728 4 13.3996 4.6268 13.3996 5.4C13.3996 6.1732 12.7728 6.8 11.9996 6.8C11.2264 6.8 10.5996 6.1732 10.5996 5.4C10.5996 4.6268 11.2264 4 11.9996 4Z" fill="currentColor"/>
<path d="M11.9996 10.6016C12.7728 10.6016 13.3996 11.2284 13.3996 12.0016C13.3996 12.7748 12.7728 13.4016 11.9996 13.4016C11.2264 13.4016 10.5996 12.7748 10.5996 12.0016C10.5996 11.2284 11.2264 10.6016 11.9996 10.6016Z" fill="currentColor"/>
<path d="M13.3996 18.5992C13.3996 17.826 12.7728 17.1992 11.9996 17.1992C11.2264 17.1992 10.5996 17.826 10.5996 18.5992C10.5996 19.3724 11.2264 19.9992 11.9996 19.9992C12.7728 19.9992 13.3996 19.3724 13.3996 18.5992Z" fill="currentColor"/>
</svg>
