<svg width="16" height="16" viewBox="0 0 16 16" fill="none" xmlns="http://www.w3.org/2000/svg">
<path d="M11.1727 4.96178C11.004 4.72711 10.7027 4.62978 10.43 4.71578C10.1547 4.80311 9.968 5.05778 9.96533 5.34578C9.96133 5.85444 9.83067 6.23644 9.648 6.52244C9.81933 5.31978 9.69333 4.28378 9.27067 3.38311C8.57533 1.90111 7.556 1.69378 7.442 1.67511C7.25067 1.64244 7.054 1.69911 6.90533 1.82378C6.756 1.94911 6.66933 2.13444 6.66733 2.32844C6.66733 2.34244 6.63733 3.78778 5.52733 4.89844C4.07267 6.35311 3.334 7.48978 3.334 9.66578C3.334 13.3571 6.38667 14.3324 8.00067 14.3324C9.61467 14.3324 12.6673 13.3571 12.6673 9.66578C12.6673 7.06644 11.234 5.04644 11.1727 4.96178Z" fill="currentColor"/>
</svg>
