<svg width="16" height="16" viewBox="0 0 16 16" fill="none" xmlns="http://www.w3.org/2000/svg">
<g clip-path="url(#clip0_4545_97594)">
<path fill-rule="evenodd" clip-rule="evenodd" d="M13.4244 2.42188H2.62518C2.28718 2.42188 2.01318 2.69588 2.01318 3.03388V11.3095H14.0364V3.03388C14.0364 2.69588 13.7624 2.42188 13.4244 2.42188Z" fill="#333D4B"/>
<path d="M14.0365 11.3125H2.01327L0.72487 12.9089C0.48927 13.2009 0.69687 13.6361 1.07247 13.6361H14.9777C15.3529 13.6361 15.5609 13.2013 15.3253 12.9089L14.0365 11.3125Z" fill="#C0C7D1"/>
<path d="M9.93709 11.8281H6.11269C6.00029 11.8281 5.89389 11.8789 5.82309 11.9665L5.36709 12.5317C5.28669 12.6313 5.35749 12.7797 5.48589 12.7797H10.5647C10.6927 12.7797 10.7639 12.6313 10.6835 12.5317L10.2275 11.9665C10.1567 11.8789 10.0503 11.8281 9.93789 11.8281H9.93709Z" fill="#E5E9EE"/>
</g>
<defs>
<clipPath id="clip0_4545_97594">
<rect width="16" height="16" fill="white"/>
</clipPath>
</defs>
</svg>
