<svg width="26" height="26" viewBox="0 0 26 26" fill="none" xmlns="http://www.w3.org/2000/svg">
<path d="M25 13C25 19.6274 19.6274 25 13 25C6.37258 25 0.999999 19.6274 1 13C1 6.37258 6.37258 0.999999 13 1C19.6274 1 25 6.37258 25 13Z" fill="#1F2937" stroke="white" stroke-width="2"/>
<path fill-rule="evenodd" clip-rule="evenodd" d="M19.3933 11.9492C20.1131 11.9495 20.697 12.5331 20.697 13.2529C20.6969 13.9727 20.113 14.5564 19.3933 14.5566H6.60518C5.88541 14.5564 5.30157 13.9727 5.30147 13.2529C5.30149 12.5331 5.88536 11.9495 6.60518 11.9492H19.3933Z" fill="white"/>
<path fill-rule="evenodd" clip-rule="evenodd" d="M13.2541 5.92578C12.8102 5.92578 12.4504 6.28563 12.4504 6.72953L12.4504 19.5171C12.4504 19.961 12.8102 20.3209 13.2541 20.3209C13.698 20.3209 14.0579 19.961 14.0579 19.5171L14.0579 6.72953C14.0579 6.28563 13.698 5.92578 13.2541 5.92578Z" fill="white" stroke="white" stroke-linecap="round" stroke-linejoin="round"/>
</svg>
