<svg width="16" height="16" viewBox="0 0 16 16" fill="none" xmlns="http://www.w3.org/2000/svg">
<g clip-path="url(#clip0_4545_97600)">
<path d="M5.3107 12.1633L4.5767 11.4293L3.8427 10.6953L2.3699 11.3165C1.4919 11.6869 0.906302 12.5197 0.827502 13.4693C0.772302 14.1357 0.652302 14.9209 0.399902 15.6061C1.0851 15.3537 1.8703 15.2337 2.5367 15.1785C3.4867 15.0997 4.3191 14.5141 4.6895 13.6361L5.3107 12.1633Z" fill="#FFB72D"/>
<path d="M13.3268 1.20565C11.588 1.30965 9.98757 2.18885 8.96717 3.60085L3.84277 10.6924L4.57677 11.4264L5.31077 12.1604L12.4024 7.03605C13.8144 6.01565 14.6936 4.41525 14.7976 2.67645C14.8472 1.84445 14.1588 1.15605 13.3268 1.20565Z" fill="#1E6EF4"/>
<path d="M4.98047 9.11719L6.884 11.0207L5.75913 12.1456C5.63129 12.2734 5.42397 12.2731 5.2964 12.1456L3.8556 10.7048C3.72776 10.5769 3.72804 10.3696 3.8556 10.2421L4.98047 9.11719Z" fill="#4A4A4A"/>
</g>
<defs>
<clipPath id="clip0_4545_97600">
<rect width="16" height="16" fill="white"/>
</clipPath>
</defs>
</svg>
