<svg width="16" height="16" viewBox="0 0 16 16" fill="none" xmlns="http://www.w3.org/2000/svg">
<g clip-path="url(#clip0_4545_97606)">
<path d="M13.8653 6.25466C13.7541 3.16786 11.2221 0.671857 8.13415 0.603057C4.83175 0.529457 2.13135 3.18466 2.13135 6.47066C2.13135 7.46546 2.37975 8.40226 2.81655 9.22306L2.81415 9.22146C2.82055 9.23306 2.82655 9.24346 2.83295 9.25466C2.84935 9.28506 2.86695 9.31466 2.88415 9.34506C2.90175 9.37626 2.91975 9.40746 2.93735 9.43746C2.96575 9.48626 2.99495 9.53426 3.02495 9.58186C3.04215 9.60906 3.05895 9.63506 3.07615 9.66146C3.09815 9.69546 3.11975 9.72986 3.14215 9.76346C3.97335 11.0011 4.68015 11.0899 4.93055 12.0343H7.47055V9.20946L6.11495 7.85386C5.89575 7.63466 5.89575 7.27946 6.11495 7.06026C6.33415 6.84106 6.68935 6.84106 6.90855 7.06026L8.00895 8.16066L9.09175 7.07786C9.31095 6.85866 9.66615 6.85866 9.88535 7.07786C10.1045 7.29706 10.1045 7.65226 9.88535 7.87146L8.52975 9.22706V12.0339H11.0697C11.3209 11.0859 12.0317 10.9999 12.8665 9.75146C12.8673 9.75066 12.8677 9.74946 12.8685 9.74866C12.9085 9.68906 12.9485 9.62626 12.9889 9.56106C13.0097 9.52746 13.0301 9.49386 13.0501 9.45986C13.0957 9.38346 13.1413 9.30506 13.1869 9.22106L13.1833 9.22306C13.6517 8.34266 13.9037 7.32946 13.8649 6.25426L13.8653 6.25466Z" fill="#FFC33A"/>
<path d="M8.52988 12.0364V9.22964L9.88548 7.87404C10.1047 7.65484 10.1047 7.29964 9.88548 7.08044C9.66628 6.86124 9.31108 6.86124 9.09188 7.08044L8.00908 8.16324L6.90868 7.06284C6.68948 6.84364 6.33428 6.84364 6.11508 7.06284C5.89588 7.28204 5.89588 7.63724 6.11508 7.85644L7.47068 9.21204V12.0368H8.53028L8.52988 12.0364Z" fill="#FF9000"/>
<path d="M4.94189 12.0316C4.94469 12.0948 4.94669 12.1604 4.94749 12.2292V13.3809C4.94749 14.4949 5.93069 15.398 7.04509 15.398H8.95549C10.0695 15.398 11.0651 14.4949 11.0651 13.3809V12.2736C11.0651 12.188 11.0675 12.1084 11.0711 12.0312H4.94229L4.94189 12.0316Z" fill="#7D8996"/>
<path d="M11.1391 12.125H4.87354V13.325H11.1391V12.125Z" fill="#4B596A"/>
</g>
<defs>
<clipPath id="clip0_4545_97606">
<rect width="16" height="16" fill="white"/>
</clipPath>
</defs>
</svg>
