<svg width="24" height="24" viewBox="0 0 24 24" fill="none" xmlns="http://www.w3.org/2000/svg">
<path d="M13.2979 2C13.6613 2 13.9789 2.24514 14.0713 2.59668L14.5684 4.48633L16.3457 5.21777L17.6406 4.1123C17.9581 3.84104 18.4303 3.85908 18.7256 4.1543L20.6455 6.07422C20.9396 6.36835 20.959 6.83861 20.6904 7.15625L19.5898 8.45898L20.3037 10.1826L22.1973 10.665C22.5518 10.7553 22.7998 11.0746 22.7998 11.4404V13.3379C22.7998 13.7021 22.5537 14.0206 22.2012 14.1123L20.2959 14.6084L19.5811 16.335L20.6904 17.6426C20.9596 17.9602 20.9399 18.4312 20.6455 18.7256L18.7256 20.6455C18.4252 20.9459 17.9423 20.9594 17.626 20.6758L17.5723 20.6279C17.5378 20.5971 17.4879 20.5522 17.4268 20.498C17.3042 20.3893 17.1363 20.2419 16.9561 20.085C16.7473 19.9032 16.5349 19.7205 16.3574 19.5732L14.6172 20.2939L14.1357 22.1963C14.0459 22.5511 13.7264 22.7996 13.3604 22.7998H11.4404C11.0742 22.7998 10.7539 22.5514 10.6641 22.1963L10.1846 20.2939L8.49609 19.5996L7.14551 20.7002C6.82737 20.9595 6.36442 20.9357 6.07422 20.6455L4.1543 18.7256C3.85454 18.4258 3.84095 17.9444 4.12305 17.6279L5.24121 16.373L4.51855 14.6582L2.58887 14.1318C2.24124 14.0367 2.00016 13.7208 2 13.3604V11.4404C2 11.0687 2.25614 10.7457 2.61816 10.6611L4.49219 10.2236L5.19629 8.49414L4.09863 7.14453C3.84029 6.82636 3.86448 6.36404 4.1543 6.07422L6.07422 4.1543C6.3738 3.85471 6.8553 3.8405 7.17188 4.12207L8.43066 5.24219L10.1416 4.52051L10.6484 2.59668C10.7409 2.24523 11.0585 2 11.4219 2H13.2979ZM11.5889 5.30859C11.5257 5.54855 11.3546 5.74534 11.126 5.8418L8.58691 6.91211C8.30271 7.03191 7.9746 6.97841 7.74414 6.77344L6.67188 5.81934L5.7959 6.69531L6.73633 7.85254C6.92041 8.07912 6.96643 8.38876 6.85645 8.65918L5.81836 11.21C5.72053 11.4503 5.51243 11.6284 5.25977 11.6875L3.59961 12.0752V12.749L5.31543 13.2178C5.55239 13.2825 5.74638 13.4524 5.8418 13.6787L6.91211 16.2168C7.03204 16.5013 6.97791 16.8301 6.77246 17.0605L5.82031 18.1289L6.69434 19.0029L7.85449 18.0586C8.082 17.8733 8.3927 17.8268 8.66406 17.9385L11.165 18.9678C11.3994 19.0642 11.5746 19.2661 11.6367 19.5117L12.0635 21.2002H12.7373L13.165 19.5127C13.227 19.268 13.4006 19.0664 13.6338 18.9697L16.1787 17.916C16.4338 17.8104 16.7256 17.8433 16.9502 18.0039C17.2001 18.1825 17.6504 18.5677 18.0068 18.8779C18.0474 18.9132 18.0871 18.9484 18.126 18.9824L18.9932 18.1152L18.0449 16.9971C17.8511 16.7684 17.8013 16.4498 17.916 16.1729L18.9707 13.6279C19.0667 13.3964 19.2653 13.2233 19.5078 13.1602L21.2002 12.7197V12.0625L19.5205 11.6348C19.2761 11.5726 19.0751 11.399 18.9785 11.166L17.9248 8.62109C17.8103 8.34459 17.8596 8.02742 18.0527 7.79883L18.9941 6.68555L18.1172 5.80859L17.0137 6.75195C16.7855 6.94685 16.467 6.99793 16.1895 6.88379L13.5908 5.81445C13.3592 5.71901 13.1858 5.52065 13.1221 5.27832L12.6807 3.59961H12.0381L11.5889 5.30859ZM12.4014 8.60059C14.5001 8.60059 16.2012 10.3017 16.2012 12.4004C16.201 14.499 14.5 16.2002 12.4014 16.2002C10.3028 16.2001 8.60172 14.4989 8.60156 12.4004C8.60156 10.3017 10.3027 8.60069 12.4014 8.60059ZM12.4014 10.2002C11.1864 10.2003 10.2012 11.1854 10.2012 12.4004C10.2013 13.6153 11.1865 14.6005 12.4014 14.6006C13.6163 14.6006 14.6014 13.6153 14.6016 12.4004C14.6016 11.1853 13.6164 10.2002 12.4014 10.2002Z" fill="#1F2937"/>
</svg>
