<svg width="588" height="440" viewBox="0 0 588 440" fill="none" xmlns="http://www.w3.org/2000/svg">
<path d="M386.214 158.213C386.109 158.317 386.039 158.45 386.013 158.595C385.986 158.74 386.004 158.89 386.064 159.024L394.305 177.567C394.363 177.697 394.457 177.807 394.576 177.884C394.695 177.961 394.834 178.001 394.976 178C395.118 177.999 395.257 177.956 395.375 177.878C395.493 177.799 395.585 177.688 395.641 177.557L398.615 170.614L405.559 167.639C405.689 167.583 405.8 167.49 405.879 167.372C405.957 167.254 405.999 167.116 406 166.974C406.001 166.833 405.961 166.694 405.884 166.575C405.807 166.456 405.697 166.362 405.568 166.304L387.025 158.063C386.891 158.003 386.741 157.985 386.597 158.012C386.452 158.039 386.318 158.109 386.214 158.213Z" fill="#7EC88E"/>
<rect x="399" y="170" width="147" height="36" rx="18" fill="#7EC88E"/>
<path d="M408.29 193V183.102H414.812V184.797H410.341V187.203H414.388V188.898H410.341V193H408.29ZM416.001 193V185.576H417.956V186.861H418.038C418.305 185.952 418.995 185.467 419.829 185.467C420.034 185.467 420.294 185.494 420.472 185.535V187.34C420.28 187.278 419.891 187.23 419.61 187.23C418.694 187.23 418.018 187.866 418.024 188.775V193H416.001ZM424.56 193.15C422.317 193.144 420.916 191.605 420.923 189.309C420.916 187.019 422.317 185.48 424.56 185.48C426.809 185.48 428.203 187.019 428.21 189.309C428.203 191.605 426.809 193.144 424.56 193.15ZM422.974 189.309C422.974 190.607 423.514 191.571 424.573 191.578C425.605 191.571 426.152 190.607 426.146 189.309C426.152 188.003 425.605 187.025 424.573 187.025C423.514 187.025 422.974 188.003 422.974 189.309ZM431.505 188.707V193H429.481V185.576H431.409V186.875H431.491C431.826 186.021 432.619 185.48 433.72 185.48C435.271 185.48 436.283 186.54 436.276 188.27V193H434.267V188.625C434.26 187.709 433.768 187.162 432.927 187.162C432.086 187.162 431.505 187.729 431.505 188.707ZM441.759 185.576V187.094H440.364V190.717C440.357 191.312 440.651 191.455 441.062 191.469C441.267 191.469 441.622 191.448 441.868 191.428V193.027C441.649 193.062 441.287 193.103 440.788 193.096C439.325 193.103 438.327 192.446 438.341 191.004V187.094H437.315V185.576H438.341V183.799H440.364V185.576H441.759ZM446.325 193.15C444.049 193.144 442.654 191.674 442.661 189.322C442.654 187.032 444.069 185.48 446.243 185.48C448.191 185.48 449.729 186.711 449.729 189.24V189.814H444.657C444.657 190.936 445.32 191.626 446.366 191.633C447.057 191.626 447.549 191.325 447.747 190.881H449.675C449.388 192.255 448.157 193.144 446.325 193.15ZM444.657 188.543H447.815C447.809 187.641 447.187 186.991 446.284 186.998C445.354 186.991 444.698 187.688 444.657 188.543ZM453.024 188.707V193H451.001V185.576H452.929V186.875H453.011C453.346 186.021 454.139 185.48 455.239 185.48C456.791 185.48 457.803 186.54 457.796 188.27V193H455.786V188.625C455.779 187.709 455.287 187.162 454.446 187.162C453.605 187.162 453.024 187.729 453.024 188.707ZM462.103 193.123C460.407 193.123 459.081 191.776 459.081 189.295C459.081 186.752 460.462 185.48 462.103 185.48C463.347 185.48 463.941 186.219 464.208 186.82H464.276V183.102H466.3V193H464.304V191.811H464.208C463.928 192.426 463.312 193.123 462.103 193.123ZM461.159 189.281C461.152 190.594 461.706 191.503 462.731 191.51C463.743 191.503 464.317 190.621 464.317 189.281C464.317 187.948 463.75 187.094 462.731 187.094C461.699 187.094 461.152 187.989 461.159 189.281ZM474.681 193H471.194V183.102H474.722C477.702 183.102 479.527 184.954 479.521 188.037C479.527 191.134 477.702 193 474.681 193ZM473.245 191.236H474.599C476.485 191.236 477.47 190.259 477.47 188.037C477.47 185.836 476.485 184.865 474.612 184.865H473.245V191.236ZM484.333 193.15C482.057 193.144 480.662 191.674 480.669 189.322C480.662 187.032 482.077 185.48 484.251 185.48C486.199 185.48 487.737 186.711 487.737 189.24V189.814H482.665C482.665 190.936 483.328 191.626 484.374 191.633C485.064 191.626 485.557 191.325 485.755 190.881H487.683C487.396 192.255 486.165 193.144 484.333 193.15ZM482.665 188.543H485.823C485.816 187.641 485.194 186.991 484.292 186.998C483.362 186.991 482.706 187.688 482.665 188.543ZM495.694 185.576L493.083 193H490.813L488.216 185.576H490.349L491.907 190.908H491.989L493.548 185.576H495.694ZM499.796 193.15C497.52 193.144 496.125 191.674 496.132 189.322C496.125 187.032 497.54 185.48 499.714 185.48C501.662 185.48 503.2 186.711 503.2 189.24V189.814H498.128C498.128 190.936 498.791 191.626 499.837 191.633C500.527 191.626 501.02 191.325 501.218 190.881H503.146C502.858 192.255 501.628 193.144 499.796 193.15ZM498.128 188.543H501.286C501.279 187.641 500.657 186.991 499.755 186.998C498.825 186.991 498.169 187.688 498.128 188.543ZM506.495 183.102V193H504.472V183.102H506.495ZM511.403 193.15C509.161 193.144 507.76 191.605 507.767 189.309C507.76 187.019 509.161 185.48 511.403 185.48C513.652 185.48 515.047 187.019 515.054 189.309C515.047 191.605 513.652 193.144 511.403 193.15ZM509.817 189.309C509.817 190.607 510.357 191.571 511.417 191.578C512.449 191.571 512.996 190.607 512.989 189.309C512.996 188.003 512.449 187.025 511.417 187.025C510.357 187.025 509.817 188.003 509.817 189.309ZM516.325 195.789V185.576H518.321V186.82H518.403C518.684 186.219 519.271 185.48 520.522 185.48C522.163 185.48 523.537 186.752 523.53 189.295C523.537 191.776 522.218 193.123 520.522 193.123C519.312 193.123 518.69 192.426 518.403 191.811H518.349V195.789H516.325ZM518.308 189.281C518.301 190.621 518.875 191.503 519.88 191.51C520.912 191.503 521.473 190.594 521.466 189.281C521.473 187.989 520.926 187.094 519.88 187.094C518.868 187.094 518.301 187.948 518.308 189.281ZM528.206 193.15C525.93 193.144 524.535 191.674 524.542 189.322C524.535 187.032 525.95 185.48 528.124 185.48C530.072 185.48 531.61 186.711 531.61 189.24V189.814H526.538C526.538 190.936 527.201 191.626 528.247 191.633C528.938 191.626 529.43 191.325 529.628 190.881H531.556C531.269 192.255 530.038 193.144 528.206 193.15ZM526.538 188.543H529.696C529.689 187.641 529.067 186.991 528.165 186.998C527.235 186.991 526.579 187.688 526.538 188.543ZM532.882 193V185.576H534.837V186.861H534.919C535.186 185.952 535.876 185.467 536.71 185.467C536.915 185.467 537.175 185.494 537.353 185.535V187.34C537.161 187.278 536.771 187.23 536.491 187.23C535.575 187.23 534.898 187.866 534.905 188.775V193H532.882Z" fill="white"/>
<rect x="159" y="94" width="125" height="36" rx="18" fill="#FE9679"/>
<path d="M168.091 117V107.102H171.974C174.229 107.102 175.515 108.482 175.515 110.438C175.515 112.42 174.202 113.773 171.919 113.773H170.142V117H168.091ZM170.142 112.119H171.591C172.808 112.119 173.396 111.436 173.396 110.438C173.396 109.453 172.808 108.783 171.591 108.783H170.142V112.119ZM176.772 117V109.576H178.728V110.861H178.81C179.083 109.945 179.767 109.467 180.601 109.467C180.806 109.467 181.065 109.494 181.243 109.535V111.34C181.052 111.285 180.669 111.23 180.382 111.23C179.466 111.23 178.796 111.873 178.796 112.775V117H176.772ZM185.331 117.15C183.089 117.15 181.694 115.605 181.694 113.309C181.694 111.012 183.089 109.48 185.331 109.48C187.573 109.48 188.981 111.012 188.981 113.309C188.981 115.605 187.573 117.15 185.331 117.15ZM185.345 115.578C186.384 115.578 186.917 114.607 186.917 113.309C186.917 111.996 186.384 111.025 185.345 111.025C184.292 111.025 183.745 111.996 183.745 113.309C183.745 114.607 184.292 115.578 185.345 115.578ZM190.253 109.576H192.276V117.369C192.276 119.078 191.224 119.789 189.487 119.789L189.077 119.775V118.189C189.187 118.189 189.255 118.203 189.351 118.203C190.007 118.203 190.253 117.902 190.253 117.342V109.576ZM191.251 108.605C190.636 108.605 190.144 108.141 190.144 107.58C190.144 107.006 190.636 106.541 191.251 106.541C191.853 106.541 192.345 107.006 192.345 107.58C192.345 108.141 191.853 108.605 191.251 108.605ZM197.212 117.15C194.942 117.15 193.548 115.674 193.548 113.322C193.548 111.025 194.956 109.48 197.13 109.48C199.085 109.48 200.616 110.711 200.616 113.24V113.814H195.544C195.544 114.936 196.214 115.633 197.253 115.633C197.937 115.633 198.429 115.332 198.634 114.881H200.562C200.274 116.248 199.044 117.15 197.212 117.15ZM195.544 112.543H198.702C198.702 111.641 198.073 110.998 197.171 110.998C196.241 110.998 195.578 111.688 195.544 112.543ZM205.224 117.15C202.954 117.15 201.587 115.578 201.587 113.309C201.587 111.039 202.968 109.48 205.224 109.48C207.138 109.48 208.437 110.602 208.519 112.297H206.618C206.495 111.559 206.017 111.053 205.251 111.053C204.28 111.053 203.638 111.873 203.638 113.281C203.638 114.717 204.267 115.537 205.251 115.537C205.962 115.537 206.495 115.1 206.618 114.307H208.519C208.423 115.988 207.192 117.15 205.224 117.15ZM213.687 109.576V111.094H212.292V114.717C212.292 115.305 212.579 115.455 212.989 115.469C213.194 115.469 213.55 115.455 213.796 115.428V117.027C213.577 117.068 213.222 117.096 212.716 117.096C211.253 117.096 210.255 116.439 210.269 115.004V111.094H209.243V109.576H210.269V107.799H212.292V109.576H213.687ZM218.226 107.102H220.769L223.517 113.814H223.626L226.374 107.102H228.917V117H226.921V110.52H226.839L224.255 116.959H222.888L220.304 110.492H220.222V117H218.226V107.102ZM230.188 114.922C230.188 113.268 231.528 112.721 232.95 112.639C233.483 112.604 234.481 112.557 234.796 112.543V111.941C234.782 111.326 234.358 110.957 233.606 110.957C232.923 110.957 232.485 111.271 232.376 111.777H230.448C230.571 110.492 231.692 109.48 233.661 109.48C235.274 109.48 236.806 110.205 236.806 111.996V117H234.892V115.975H234.837C234.468 116.658 233.771 117.137 232.663 117.137C231.241 117.137 230.188 116.398 230.188 114.922ZM232.13 114.867C232.13 115.441 232.595 115.742 233.237 115.742C234.153 115.742 234.81 115.127 234.796 114.348V113.801C234.488 113.814 233.627 113.862 233.278 113.896C232.581 113.965 232.13 114.293 232.13 114.867ZM240.374 112.707V117H238.351V109.576H240.278V110.875H240.36C240.702 110.014 241.495 109.48 242.589 109.48C244.134 109.48 245.159 110.533 245.146 112.27V117H243.136V112.625C243.136 111.709 242.63 111.162 241.796 111.162C240.948 111.162 240.374 111.723 240.374 112.707ZM246.362 114.922C246.362 113.268 247.702 112.721 249.124 112.639C249.657 112.604 250.655 112.557 250.97 112.543V111.941C250.956 111.326 250.532 110.957 249.78 110.957C249.097 110.957 248.659 111.271 248.55 111.777H246.622C246.745 110.492 247.866 109.48 249.835 109.48C251.448 109.48 252.979 110.205 252.979 111.996V117H251.065V115.975H251.011C250.642 116.658 249.944 117.137 248.837 117.137C247.415 117.137 246.362 116.398 246.362 114.922ZM248.304 114.867C248.304 115.441 248.769 115.742 249.411 115.742C250.327 115.742 250.983 115.127 250.97 114.348V113.801C250.662 113.814 249.801 113.862 249.452 113.896C248.755 113.965 248.304 114.293 248.304 114.867ZM257.86 119.939C255.81 119.939 254.552 119.023 254.429 117.615H256.425C256.534 118.203 257.095 118.477 257.901 118.477C258.845 118.477 259.474 118.08 259.474 117.041V115.688H259.378C259.104 116.289 258.448 116.891 257.259 116.891C255.577 116.891 254.237 115.715 254.237 113.24C254.237 110.725 255.618 109.48 257.259 109.48C258.503 109.48 259.104 110.219 259.378 110.82H259.46V109.576H261.47V117.082C261.47 118.969 259.966 119.939 257.86 119.939ZM257.888 115.373C258.899 115.373 259.474 114.58 259.474 113.268C259.474 111.941 258.899 111.094 257.888 111.094C256.862 111.094 256.315 111.982 256.315 113.268C256.315 114.553 256.862 115.373 257.888 115.373ZM266.405 117.15C264.136 117.15 262.741 115.674 262.741 113.322C262.741 111.025 264.149 109.48 266.323 109.48C268.278 109.48 269.81 110.711 269.81 113.24V113.814H264.737C264.737 114.936 265.407 115.633 266.446 115.633C267.13 115.633 267.622 115.332 267.827 114.881H269.755C269.468 116.248 268.237 117.15 266.405 117.15ZM264.737 112.543H267.896C267.896 111.641 267.267 110.998 266.364 110.998C265.435 110.998 264.771 111.688 264.737 112.543ZM271.081 117V109.576H273.036V110.861H273.118C273.392 109.945 274.075 109.467 274.909 109.467C275.114 109.467 275.374 109.494 275.552 109.535V111.34C275.36 111.285 274.978 111.23 274.69 111.23C273.774 111.23 273.104 111.873 273.104 112.775V117H271.081Z" fill="white"/>
<path d="M295.786 82.2127C295.891 82.3169 295.961 82.4503 295.987 82.5952C296.014 82.74 295.996 82.8896 295.936 83.0242L287.695 101.567C287.637 101.697 287.543 101.807 287.424 101.884C287.305 101.961 287.166 102.001 287.024 102C286.882 101.999 286.743 101.956 286.625 101.878C286.507 101.799 286.415 101.688 286.359 101.557L283.385 94.6136L276.441 91.6386C276.311 91.5827 276.2 91.49 276.121 91.3721C276.043 91.2541 276.001 91.1158 276 90.9743C275.999 90.8327 276.039 90.6939 276.116 90.5749C276.193 90.4559 276.303 90.3618 276.432 90.3041L294.975 82.0627C295.109 82.003 295.259 81.9854 295.403 82.0122C295.548 82.039 295.682 82.1089 295.786 82.2127Z" fill="#FE9679"/>
<rect x="79" y="220" width="131" height="36" rx="18" fill="#DF95FF"/>
<path d="M87.9395 243V233.102H91.8223C94.0713 233.102 95.3633 234.489 95.3633 236.438C95.3633 238.413 94.0508 239.773 91.7676 239.773H89.9902V243H87.9395ZM89.9902 238.119H91.4395C92.6562 238.119 93.251 237.436 93.2441 236.438C93.251 235.453 92.6562 234.79 91.4395 234.783H89.9902V238.119ZM96.6211 243V235.576H98.5762V236.861H98.6582C98.9248 235.952 99.6152 235.467 100.449 235.467C100.654 235.467 100.914 235.494 101.092 235.535V237.34C100.9 237.278 100.511 237.23 100.23 237.23C99.3145 237.23 98.6377 237.866 98.6445 238.775V243H96.6211ZM105.18 243.15C102.938 243.144 101.536 241.605 101.543 239.309C101.536 237.019 102.938 235.48 105.18 235.48C107.429 235.48 108.823 237.019 108.83 239.309C108.823 241.605 107.429 243.144 105.18 243.15ZM103.594 239.309C103.594 240.607 104.134 241.571 105.193 241.578C106.226 241.571 106.772 240.607 106.766 239.309C106.772 238.003 106.226 237.025 105.193 237.025C104.134 237.025 103.594 238.003 103.594 239.309ZM112.836 243.123C111.141 243.123 109.814 241.776 109.814 239.295C109.814 236.752 111.195 235.48 112.836 235.48C114.08 235.48 114.675 236.219 114.941 236.82H115.01V233.102H117.033V243H115.037V241.811H114.941C114.661 242.426 114.046 243.123 112.836 243.123ZM111.893 239.281C111.886 240.594 112.439 241.503 113.465 241.51C114.477 241.503 115.051 240.621 115.051 239.281C115.051 237.948 114.483 237.094 113.465 237.094C112.433 237.094 111.886 237.989 111.893 239.281ZM123.418 239.842V235.576H125.441V243H123.5V241.66H123.418C123.083 242.521 122.283 243.096 121.162 243.096C119.679 243.096 118.66 242.043 118.66 240.307V235.576H120.684V239.951C120.684 240.833 121.189 241.38 121.982 241.387C122.721 241.38 123.418 240.854 123.418 239.842ZM130.35 243.15C128.073 243.144 126.706 241.571 126.713 239.309C126.706 237.039 128.101 235.48 130.35 235.48C132.264 235.48 133.562 236.595 133.645 238.297H131.744C131.621 237.565 131.143 237.06 130.377 237.053C129.406 237.06 128.764 237.873 128.764 239.281C128.764 240.717 129.393 241.537 130.377 241.537C131.088 241.537 131.614 241.093 131.744 240.307H133.645C133.556 241.988 132.318 243.144 130.35 243.15ZM138.812 235.576V237.094H137.418V240.717C137.411 241.312 137.705 241.455 138.115 241.469C138.32 241.469 138.676 241.448 138.922 241.428V243.027C138.703 243.062 138.341 243.103 137.842 243.096C136.379 243.103 135.381 242.446 135.395 241.004V237.094H134.369V235.576H135.395V233.799H137.418V235.576H138.812ZM146.838 243H143.352V233.102H146.879C149.859 233.102 151.685 234.954 151.678 238.037C151.685 241.134 149.859 243 146.838 243ZM145.402 241.236H146.756C148.643 241.236 149.627 240.259 149.627 238.037C149.627 235.836 148.643 234.865 146.77 234.865H145.402V241.236ZM156.49 243.15C154.214 243.144 152.819 241.674 152.826 239.322C152.819 237.032 154.234 235.48 156.408 235.48C158.356 235.48 159.895 236.711 159.895 239.24V239.814H154.822C154.822 240.936 155.485 241.626 156.531 241.633C157.222 241.626 157.714 241.325 157.912 240.881H159.84C159.553 242.255 158.322 243.144 156.49 243.15ZM154.822 238.543H157.98C157.974 237.641 157.352 236.991 156.449 236.998C155.52 236.991 154.863 237.688 154.822 238.543ZM165.404 237.777C165.315 237.258 164.864 236.923 164.188 236.916C163.531 236.923 163.032 237.23 163.039 237.682C163.032 238.017 163.292 238.276 163.996 238.42L165.322 238.693C166.765 238.994 167.462 239.637 167.469 240.703C167.462 242.166 166.149 243.144 164.174 243.15C162.171 243.144 160.995 242.248 160.824 240.799H162.861C162.957 241.38 163.429 241.681 164.174 241.688C164.912 241.681 165.404 241.387 165.404 240.908C165.404 240.525 165.09 240.286 164.393 240.143L163.162 239.896C161.747 239.616 161.022 238.892 161.029 237.791C161.022 236.369 162.246 235.48 164.16 235.48C166.033 235.48 167.195 236.369 167.305 237.777H165.404ZM168.713 243V235.576H170.736V243H168.713ZM168.617 233.58C168.617 233.006 169.116 232.548 169.725 232.541C170.326 232.548 170.825 233.006 170.818 233.58C170.825 234.141 170.326 234.605 169.725 234.605C169.116 234.605 168.617 234.141 168.617 233.58ZM175.645 245.939C173.594 245.939 172.329 245.017 172.213 243.615H174.209C174.318 244.21 174.879 244.477 175.686 244.477C176.622 244.477 177.251 244.073 177.258 243.041V241.688H177.162C176.896 242.289 176.239 242.897 175.043 242.891C173.368 242.897 172.021 241.715 172.021 239.24C172.021 236.731 173.402 235.48 175.043 235.48C176.287 235.48 176.889 236.219 177.162 236.82H177.244V235.576H179.254V243.082C179.247 244.976 177.757 245.939 175.645 245.939ZM174.1 239.268C174.093 240.553 174.646 241.366 175.672 241.373C176.684 241.366 177.258 240.587 177.258 239.268C177.258 237.948 176.69 237.094 175.672 237.094C174.64 237.094 174.093 237.989 174.1 239.268ZM182.85 238.707V243H180.826V235.576H182.754V236.875H182.836C183.171 236.021 183.964 235.48 185.064 235.48C186.616 235.48 187.628 236.54 187.621 238.27V243H185.611V238.625C185.604 237.709 185.112 237.162 184.271 237.162C183.431 237.162 182.85 237.729 182.85 238.707ZM192.557 243.15C190.28 243.144 188.886 241.674 188.893 239.322C188.886 237.032 190.301 235.48 192.475 235.48C194.423 235.48 195.961 236.711 195.961 239.24V239.814H190.889C190.889 240.936 191.552 241.626 192.598 241.633C193.288 241.626 193.78 241.325 193.979 240.881H195.906C195.619 242.255 194.389 243.144 192.557 243.15ZM190.889 238.543H194.047C194.04 237.641 193.418 236.991 192.516 236.998C191.586 236.991 190.93 237.688 190.889 238.543ZM197.232 243V235.576H199.188V236.861H199.27C199.536 235.952 200.227 235.467 201.061 235.467C201.266 235.467 201.525 235.494 201.703 235.535V237.34C201.512 237.278 201.122 237.23 200.842 237.23C199.926 237.23 199.249 237.866 199.256 238.775V243H197.232Z" fill="white"/>
<path d="M221.786 208.213C221.891 208.317 221.961 208.45 221.987 208.595C222.014 208.74 221.996 208.89 221.936 209.024L213.695 227.567C213.637 227.697 213.543 227.807 213.424 227.884C213.305 227.961 213.166 228.001 213.024 228C212.882 227.999 212.743 227.956 212.625 227.878C212.507 227.799 212.415 227.688 212.359 227.557L209.385 220.614L202.441 217.639C202.311 217.583 202.2 217.49 202.121 217.372C202.043 217.254 202.001 217.116 202 216.974C201.999 216.833 202.039 216.694 202.116 216.575C202.193 216.456 202.303 216.362 202.432 216.304L220.975 208.063C221.109 208.003 221.259 207.985 221.403 208.012C221.548 208.039 221.682 208.109 221.786 208.213Z" fill="#DF95FF"/>
<path d="M381.214 306.213C381.109 306.317 381.039 306.45 381.013 306.595C380.986 306.74 381.004 306.89 381.064 307.024L389.305 325.567C389.363 325.697 389.457 325.807 389.576 325.884C389.695 325.961 389.834 326.001 389.976 326C390.118 325.999 390.257 325.956 390.375 325.878C390.493 325.799 390.585 325.688 390.641 325.557L393.615 318.614L400.559 315.639C400.689 315.583 400.8 315.49 400.879 315.372C400.957 315.254 400.999 315.116 401 314.974C401.001 314.833 400.961 314.694 400.884 314.575C400.807 314.456 400.697 314.362 400.568 314.304L382.025 306.063C381.891 306.003 381.741 305.985 381.597 306.012C381.452 306.039 381.318 306.109 381.214 306.213Z" fill="#8097FF"/>
<rect x="394" y="318" width="144" height="36" rx="18" fill="#8097FF"/>
<path d="M403.089 341V331.102H407.026C409.207 331.102 410.314 332.154 410.308 333.645C410.314 334.807 409.549 335.538 408.53 335.764V335.859C409.645 335.914 410.697 336.803 410.704 338.266C410.697 339.838 409.521 341 407.286 341H403.089ZM405.14 339.305H406.876C408.065 339.312 408.578 338.819 408.571 338.074C408.578 337.24 407.942 336.652 406.931 336.652H405.14V339.305ZM405.14 335.244H406.726C407.587 335.251 408.236 334.766 408.229 333.973C408.236 333.255 407.703 332.77 406.767 332.77H405.14V335.244ZM411.606 338.922C411.613 337.268 412.939 336.728 414.368 336.639C414.901 336.604 415.899 336.557 416.214 336.543V335.941C416.207 335.319 415.783 334.964 415.024 334.957C414.334 334.964 413.903 335.271 413.794 335.777H411.866C411.989 334.492 413.11 333.48 415.079 333.48C416.699 333.48 418.23 334.205 418.224 335.996V341H416.31V339.975H416.255C415.893 340.658 415.182 341.144 414.081 341.137C412.659 341.144 411.613 340.392 411.606 338.922ZM413.548 338.867C413.548 339.435 414.006 339.735 414.655 339.742C415.578 339.735 416.221 339.134 416.214 338.348V337.808C415.906 337.821 415.038 337.869 414.696 337.896C413.992 337.958 413.548 338.293 413.548 338.867ZM423.104 341.15C420.828 341.144 419.461 339.571 419.468 337.309C419.461 335.039 420.855 333.48 423.104 333.48C425.019 333.48 426.317 334.595 426.399 336.297H424.499C424.376 335.565 423.897 335.06 423.132 335.053C422.161 335.06 421.519 335.873 421.519 337.281C421.519 338.717 422.147 339.537 423.132 339.537C423.843 339.537 424.369 339.093 424.499 338.307H426.399C426.311 339.988 425.073 341.144 423.104 341.15ZM427.657 341V331.102H429.681V336.42H429.79L432.196 333.576H434.521L431.752 336.789L434.671 341H432.292L430.248 337.979L429.681 338.621V341H427.657ZM438.526 341.15C436.25 341.144 434.855 339.674 434.862 337.322C434.855 335.032 436.271 333.48 438.444 333.48C440.393 333.48 441.931 334.711 441.931 337.24V337.814H436.858C436.858 338.936 437.521 339.626 438.567 339.633C439.258 339.626 439.75 339.325 439.948 338.881H441.876C441.589 340.255 440.358 341.144 438.526 341.15ZM436.858 336.543H440.017C440.01 335.641 439.388 334.991 438.485 334.998C437.556 334.991 436.899 335.688 436.858 336.543ZM445.226 336.707V341H443.202V333.576H445.13V334.875H445.212C445.547 334.021 446.34 333.48 447.44 333.48C448.992 333.48 450.004 334.54 449.997 336.27V341H447.987V336.625C447.98 335.709 447.488 335.162 446.647 335.162C445.807 335.162 445.226 335.729 445.226 336.707ZM454.304 341.123C452.608 341.123 451.282 339.776 451.282 337.295C451.282 334.752 452.663 333.48 454.304 333.48C455.548 333.48 456.143 334.219 456.409 334.82H456.478V331.102H458.501V341H456.505V339.811H456.409C456.129 340.426 455.514 341.123 454.304 341.123ZM453.36 337.281C453.354 338.594 453.907 339.503 454.933 339.51C455.944 339.503 456.519 338.621 456.519 337.281C456.519 335.948 455.951 335.094 454.933 335.094C453.9 335.094 453.354 335.989 453.36 337.281ZM466.882 341H463.396V331.102H466.923C469.903 331.102 471.729 332.954 471.722 336.037C471.729 339.134 469.903 341 466.882 341ZM465.446 339.236H466.8C468.687 339.236 469.671 338.259 469.671 336.037C469.671 333.836 468.687 332.865 466.813 332.865H465.446V339.236ZM476.534 341.15C474.258 341.144 472.863 339.674 472.87 337.322C472.863 335.032 474.278 333.48 476.452 333.48C478.4 333.48 479.938 334.711 479.938 337.24V337.814H474.866C474.866 338.936 475.529 339.626 476.575 339.633C477.266 339.626 477.758 339.325 477.956 338.881H479.884C479.597 340.255 478.366 341.144 476.534 341.15ZM474.866 336.543H478.024C478.018 335.641 477.396 334.991 476.493 334.998C475.563 334.991 474.907 335.688 474.866 336.543ZM487.896 333.576L485.284 341H483.015L480.417 333.576H482.55L484.108 338.908H484.19L485.749 333.576H487.896ZM491.997 341.15C489.721 341.144 488.326 339.674 488.333 337.322C488.326 335.032 489.741 333.48 491.915 333.48C493.863 333.48 495.401 334.711 495.401 337.24V337.814H490.329C490.329 338.936 490.992 339.626 492.038 339.633C492.729 339.626 493.221 339.325 493.419 338.881H495.347C495.06 340.255 493.829 341.144 491.997 341.15ZM490.329 336.543H493.487C493.48 335.641 492.858 334.991 491.956 334.998C491.026 334.991 490.37 335.688 490.329 336.543ZM498.696 331.102V341H496.673V331.102H498.696ZM503.604 341.15C501.362 341.144 499.961 339.605 499.968 337.309C499.961 335.019 501.362 333.48 503.604 333.48C505.854 333.48 507.248 335.019 507.255 337.309C507.248 339.605 505.854 341.144 503.604 341.15ZM502.019 337.309C502.019 338.607 502.559 339.571 503.618 339.578C504.65 339.571 505.197 338.607 505.19 337.309C505.197 336.003 504.65 335.025 503.618 335.025C502.559 335.025 502.019 336.003 502.019 337.309ZM508.526 343.789V333.576H510.522V334.82H510.604C510.885 334.219 511.473 333.48 512.724 333.48C514.364 333.48 515.738 334.752 515.731 337.295C515.738 339.776 514.419 341.123 512.724 341.123C511.514 341.123 510.892 340.426 510.604 339.811H510.55V343.789H508.526ZM510.509 337.281C510.502 338.621 511.076 339.503 512.081 339.51C513.113 339.503 513.674 338.594 513.667 337.281C513.674 335.989 513.127 335.094 512.081 335.094C511.069 335.094 510.502 335.948 510.509 337.281ZM520.407 341.15C518.131 341.144 516.736 339.674 516.743 337.322C516.736 335.032 518.151 333.48 520.325 333.48C522.273 333.48 523.812 334.711 523.812 337.24V337.814H518.739C518.739 338.936 519.402 339.626 520.448 339.633C521.139 339.626 521.631 339.325 521.829 338.881H523.757C523.47 340.255 522.239 341.144 520.407 341.15ZM518.739 336.543H521.897C521.891 335.641 521.269 334.991 520.366 334.998C519.437 334.991 518.78 335.688 518.739 336.543ZM525.083 341V333.576H527.038V334.861H527.12C527.387 333.952 528.077 333.467 528.911 333.467C529.116 333.467 529.376 333.494 529.554 333.535V335.34C529.362 335.278 528.973 335.23 528.692 335.23C527.776 335.23 527.1 335.866 527.106 336.775V341H525.083Z" fill="white"/>
</svg>
